<svg width="27" height="27" viewBox="0 0 27 27" fill="none" xmlns="http://www.w3.org/2000/svg">
<rect width="27" height="27" rx="4" fill="#F4F1E7"/>
<path d="M16.4728 6.89917H16.0899V4.98444H15.324V6.89917H10.5371C9.57977 6.89917 8.90961 7.66507 8.90961 8.5267V12.8349V13.6008V18.7705C8.90961 19.7279 9.6755 20.3981 10.5371 20.3981H16.3771C17.3344 20.3981 18.0046 19.6322 18.0046 18.7705V13.6008V12.8349V8.5267C18.1003 7.56933 17.3344 6.89917 16.4728 6.89917ZM17.4302 18.7705C17.4302 19.2492 17.0472 19.7279 16.4728 19.7279H10.5371C10.0584 19.7279 9.57977 19.345 9.57977 18.7705V13.6008H17.3344V18.7705H17.4302ZM9.57977 12.8349V8.5267C9.57977 8.04802 9.96271 7.56933 10.5371 7.56933H15.324H16.0899H16.4728C16.9515 7.56933 17.4302 7.95228 17.4302 8.5267V12.8349H9.57977Z" fill="#1A1A1A"/>
<path d="M12.0688 15.6111H11.0158V14.8453H12.0688V15.6111ZM14.079 14.8453H12.9303V15.6111H13.9832V14.8453H14.079ZM15.9934 14.8453H14.9405V15.6111H15.9934V14.8453ZM12.0688 16.1855H11.0158V16.9513H12.0688V16.1855ZM14.079 16.1855H12.9303V16.9513H13.9832V16.1855H14.079ZM15.9934 16.1855H14.9405V16.9513H15.9934V16.1855ZM12.0688 17.6213H11.0158V18.3871H12.0688V17.6213ZM14.079 17.6213H12.9303V18.3871H13.9832V17.6213H14.079ZM15.9934 17.6213H14.9405V18.3871H15.9934V17.6213Z" fill="#1A1A1A"/>
</svg>
