<svg width="27" height="27" viewBox="0 0 27 27" fill="none" xmlns="http://www.w3.org/2000/svg">
<rect width="27" height="27" rx="4" fill="#F4F1E7"/>
<path d="M18.1003 8.23947H8.90958C7.76074 8.23947 6.89911 9.19684 6.89911 10.2499V15.8027C6.89911 16.9515 7.85648 17.8132 8.90958 17.8132H13.4092V21.1639L16.8557 17.8132H18.1003C19.2492 17.8132 20.1108 16.8558 20.1108 15.8027V10.2499C20.2065 9.1011 19.2492 8.23947 18.1003 8.23947ZM18.1003 17.143H16.5685L13.9836 19.5364V17.143H8.90958C8.14369 17.143 7.56927 16.5686 7.56927 15.8027V10.2499C7.56927 9.48405 8.14369 8.90963 8.90958 8.90963H18.1961C18.9619 8.90963 19.5364 9.48405 19.5364 10.2499V15.8027C19.4406 16.5686 18.8662 17.143 18.1003 17.143Z" fill="#1A1A1A"/>
<path d="M10.0584 11.5903H13.9831V12.3561H10.0584V11.5903ZM10.0584 13.5047H16.9505V14.2705H10.0584V13.5047Z" fill="#1A1A1A"/>
</svg>
